<?xml version="1.0" encoding="UTF-8"?>
<svg width="20" height="20" viewBox="0 0 20 20" xmlns="http://www.w3.org/2000/svg">
    <path d="M10 0C4.5 0 0 4.5 0 10C0 15.5 4.5 20 10 20C15.5 20 20 15.5 20 10C20 4.5 15.5 0 10 0ZM10 18C5.6 18 2 14.4 2 10C2 5.6 5.6 2 10 2C14.4 2 18 5.6 18 10C18 14.4 14.4 18 10 18Z" fill="#4CAF50"/>
    <path d="M10 4C6.7 4 4 6.7 4 10C4 13.3 6.7 16 10 16C13.3 16 16 13.3 16 10C16 6.7 13.3 4 10 4ZM10 14C7.8 14 6 12.2 6 10C6 7.8 7.8 6 10 6C12.2 6 14 7.8 14 10C14 12.2 12.2 14 10 14Z" fill="#81C784"/>
</svg> 